<svg id="Layer_1" data-name="Layer 1" xmlns="http://www.w3.org/2000/svg" viewBox="0 0 152.21 240.24"><defs><style>.cls-1{fill:#2cb5e3;}.cls-2{fill:#2cb5e4;}.cls-3{fill:#2bb5e4;}</style></defs><path class="cls-1" d="M792.14,684.24H752.25c-.17-1.69-.87-3.3-.35-4.29,23.51-45.49,11-85.81-18.61-123.1C723.11,544,710.7,533,699.77,520.76c-19.34-21.67-34.79-45.6-43.33-74.63,14.38-1.9,27.17-1.45,40.83-.43C708.85,474,729.36,495.47,750.33,517c26.57,27.25,45.63,59,51.51,97.35C805.55,638.47,802,661.59,792.14,684.24Z" transform="translate(-651.07 -444.82)"/><path class="cls-2" d="M691.58,532.05c9.92,8.38,19.14,15.92,26.88,26-5,8.43-10.42,16.71-15,25.41s-9.4,17.46-9.81,29.11h54c6.43,12.91,4.73,24.87,1.91,38.47H694c-1.1,12.83,6.91,21.68,9.08,32.86a185.44,185.44,0,0,1-40.07.24C639.66,639.23,651.32,577,691.58,532.05Z" transform="translate(-651.07 -444.82)"/><path class="cls-3" d="M757.59,445.5h40c-6.8,25-19.14,45.59-35.16,65.53l-28.29-26.59C743.86,472,750.53,458.77,757.59,445.5Z" transform="translate(-651.07 -444.82)"/></svg>